<?xml version="1.0" encoding="UTF-8"?>
<svg xmlns="http://www.w3.org/2000/svg" width="20" height="20" viewBox="0 0 20 20">
  <!-- MoOS appmenu: visible glyph at rest, semantic colour on interaction. -->
  <g id="active-center"><rect x="1" y="1" width="18" height="18" rx="6.2" fill="#7C3AED" fill-opacity="0.125"/><rect x="2" y="2" width="16" height="16" rx="5.2" fill="#D5D9EE" fill-opacity="0.160"/><g opacity="0.840"><rect x="5.5" y="5.65" width="9" height="1.7" rx=".85" fill="#17302E"/><rect x="5.5" y="9.15" width="9" height="1.7" rx=".85" fill="#17302E"/><rect x="5.5" y="12.65" width="9" height="1.7" rx=".85" fill="#17302E"/></g></g>
  <g id="inactive-center"><rect x="1" y="1" width="18" height="18" rx="6.2" fill="#7C3AED" fill-opacity="0.078"/><rect x="2" y="2" width="16" height="16" rx="5.2" fill="#D5D9EE" fill-opacity="0.100"/><g opacity="0.580"><rect x="5.5" y="5.65" width="9" height="1.7" rx=".85" fill="#3D5854"/><rect x="5.5" y="9.15" width="9" height="1.7" rx=".85" fill="#3D5854"/><rect x="5.5" y="12.65" width="9" height="1.7" rx=".85" fill="#3D5854"/></g></g>
  <g id="hover-center"><rect x="1" y="1" width="18" height="18" rx="6.2" fill="#7C3AED" fill-opacity="0.265"/><rect x="2" y="2" width="16" height="16" rx="5.2" fill="#7C3AED" fill-opacity="0.340"/><g opacity="1.000"><rect x="5.5" y="5.65" width="9" height="1.7" rx=".85" fill="#7C3AED"/><rect x="5.5" y="9.15" width="9" height="1.7" rx=".85" fill="#7C3AED"/><rect x="5.5" y="12.65" width="9" height="1.7" rx=".85" fill="#7C3AED"/></g></g>
  <g id="hover-inactive-center"><rect x="1" y="1" width="18" height="18" rx="6.2" fill="#7C3AED" fill-opacity="0.203"/><rect x="2" y="2" width="16" height="16" rx="5.2" fill="#7C3AED" fill-opacity="0.260"/><g opacity="0.780"><rect x="5.5" y="5.65" width="9" height="1.7" rx=".85" fill="#7C3AED"/><rect x="5.5" y="9.15" width="9" height="1.7" rx=".85" fill="#7C3AED"/><rect x="5.5" y="12.65" width="9" height="1.7" rx=".85" fill="#7C3AED"/></g></g>
  <g id="pressed-center" transform="translate(10 10) scale(.92) translate(-10 -10)"><rect x="1" y="1" width="18" height="18" rx="6.2" fill="#7C3AED" fill-opacity="0.718"/><rect x="2" y="2" width="16" height="16" rx="5.2" fill="#7C3AED" fill-opacity="0.920"/><g opacity="1.000"><rect x="5.5" y="5.65" width="9" height="1.7" rx=".85" fill="#F7FBFF"/><rect x="5.5" y="9.15" width="9" height="1.7" rx=".85" fill="#F7FBFF"/><rect x="5.5" y="12.65" width="9" height="1.7" rx=".85" fill="#F7FBFF"/></g></g>
  <g id="pressed-inactive-center" transform="translate(10 10) scale(.92) translate(-10 -10)"><rect x="1" y="1" width="18" height="18" rx="6.2" fill="#7C3AED" fill-opacity="0.718"/><rect x="2" y="2" width="16" height="16" rx="5.2" fill="#7C3AED" fill-opacity="0.920"/><g opacity="1.000"><rect x="5.5" y="5.65" width="9" height="1.7" rx=".85" fill="#F7FBFF"/><rect x="5.5" y="9.15" width="9" height="1.7" rx=".85" fill="#F7FBFF"/><rect x="5.5" y="12.65" width="9" height="1.7" rx=".85" fill="#F7FBFF"/></g></g>
  <g id="deactivated-center"><rect x="1" y="1" width="18" height="18" rx="6.2" fill="#7C3AED" fill-opacity="0.140"/><rect x="2" y="2" width="16" height="16" rx="5.2" fill="#D5D9EE" fill-opacity="0.180"/><g opacity="0.340"><rect x="5.5" y="5.65" width="9" height="1.7" rx=".85" fill="#3D5854"/><rect x="5.5" y="9.15" width="9" height="1.7" rx=".85" fill="#3D5854"/><rect x="5.5" y="12.65" width="9" height="1.7" rx=".85" fill="#3D5854"/></g></g>
  <g id="deactivated-inactive-center"><rect x="1" y="1" width="18" height="18" rx="6.2" fill="#7C3AED" fill-opacity="0.140"/><rect x="2" y="2" width="16" height="16" rx="5.2" fill="#D5D9EE" fill-opacity="0.180"/><g opacity="0.340"><rect x="5.5" y="5.65" width="9" height="1.7" rx=".85" fill="#3D5854"/><rect x="5.5" y="9.15" width="9" height="1.7" rx=".85" fill="#3D5854"/><rect x="5.5" y="12.65" width="9" height="1.7" rx=".85" fill="#3D5854"/></g></g>
</svg>
