<?xml version="1.0" encoding="UTF-8"?>
<!-- Mo AI system-orbit mark. Original MoOS artwork, © 2026 Moalfarras. -->
<svg xmlns="http://www.w3.org/2000/svg" width="1024" height="1024" viewBox="0 0 1024 1024">
  <defs>
    <linearGradient id="plate" x1="168" y1="120" x2="856" y2="904" gradientUnits="userSpaceOnUse">
      <stop stop-color="#241D38"/><stop offset=".58" stop-color="#12152A"/><stop offset="1" stop-color="#0B0D18"/>
    </linearGradient>
    <linearGradient id="orbitA" x1="176" y1="246" x2="850" y2="736" gradientUnits="userSpaceOnUse">
      <stop stop-color="#6EE7D2"/><stop offset=".46" stop-color="#8B7CFF"/><stop offset="1" stop-color="#C084FC"/>
    </linearGradient>
    <linearGradient id="orbitB" x1="245" y1="804" x2="787" y2="218" gradientUnits="userSpaceOnUse">
      <stop stop-color="#C084FC"/><stop offset=".55" stop-color="#6D5DFB"/><stop offset="1" stop-color="#75E7D3"/>
    </linearGradient>
    <radialGradient id="core" cx="42%" cy="30%" r="78%">
      <stop stop-color="#473A65"/><stop offset=".48" stop-color="#211B36"/><stop offset="1" stop-color="#0B0D18"/>
    </radialGradient>
    <linearGradient id="spark" x1="388" y1="355" x2="651" y2="674" gradientUnits="userSpaceOnUse">
      <stop stop-color="#A7F3E4"/><stop offset=".45" stop-color="#B89BFF"/><stop offset="1" stop-color="#FB923C"/>
    </linearGradient>
  </defs>
  <rect x="84" y="84" width="856" height="856" rx="226" fill="url(#plate)"/>
  <rect x="98" y="98" width="828" height="828" rx="212" fill="none" stroke="#D8CCFF" stroke-opacity=".14" stroke-width="14"/>
  <g fill="none" stroke-linecap="round">
    <ellipse cx="512" cy="512" rx="326" ry="198" transform="rotate(-23 512 512)" stroke="url(#orbitA)" stroke-width="66"/>
    <ellipse cx="512" cy="512" rx="212" ry="336" transform="rotate(58 512 512)" stroke="url(#orbitB)" stroke-width="42" stroke-opacity=".92"/>
  </g>
  <circle cx="512" cy="512" r="235" fill="url(#core)" stroke="#B89BFF" stroke-opacity=".45" stroke-width="10"/>
  <!-- Four-point neural spark: one bold silhouette at dock scale. -->
  <path d="M512 330C535 426 567 467 694 512C568 554 535 596 512 694C488 596 455 554 330 512C455 467 488 426 512 330Z" fill="url(#spark)"/>
  <path d="M512 379C529 445 555 478 642 512C555 545 529 578 512 645C495 578 469 545 382 512C469 478 495 445 512 379Z" fill="#EEE7F0" fill-opacity=".50"/>
  <circle cx="772" cy="316" r="51" fill="#6EE7D2" stroke="#EEE7F0" stroke-opacity=".68" stroke-width="10"/>
</svg>
