<?xml version="1.0" encoding="UTF-8"?>
<svg xmlns="http://www.w3.org/2000/svg" width="24" height="24" viewBox="0 0 24 24"
     role="img" aria-labelledby="help-title">
  <title id="help-title">Help</title>
  <style id="current-color-scheme" type="text/css">
    .ColorScheme-Text { color: #17302E; fill: currentColor; }
    .ColorScheme-Highlight { color: #7C3AED; fill: currentColor; }
    .ColorScheme-NeutralText { color: #7B520F; fill: currentColor; }
    .ColorScheme-NegativeText { color: #A52F3F; fill: currentColor; }
  </style>
  <path class="ColorScheme-Text" fill="#2e3436" fill-rule="evenodd" d="M21.75 12 A9.75 9.75 0 1 1 2.25 12 A9.75 9.75 0 1 1 21.75 12 Z M19.5 12 A7.5 7.5 0 1 1 4.5 12 A7.5 7.5 0 1 1 19.5 12 Z"/>
  <path class="ColorScheme-Text" fill="#2e3436" fill-rule="evenodd" d="M12 16.5V15.5C12 13 15 12.5 15 10.5C15 8.5 13.5 7.5 12 7.5C10.5 7.5 9.5 8.5 9.5 10"/>
  <path class="ColorScheme-Highlight" fill="#2e3436" fill-rule="evenodd" d="M13.2 18 A1.2 1.2 0 1 1 10.8 18 A1.2 1.2 0 1 1 13.2 18 Z"/>
</svg>
